<?xml version="1.0" encoding="UTF-8"?>
<svg id="Calque_1" data-name="Calque 1" xmlns="http://www.w3.org/2000/svg" viewBox="0 0 200 200">
  <defs>
    <style>
      .cls-1 {
        isolation: isolate;
      }

      .cls-2 {
        fill: none;
        stroke: #fb8c24;
      }
    </style>
  </defs>
  <g id="_03" data-name=" 03">
    <g class="cls-1">
      <path class="cls-2" d="M18.88,100.18c0-7.58.99-14.47,2.97-20.66,1.98-6.19,4.76-11.48,8.34-15.86,3.58-4.38,7.83-7.77,12.76-10.17s10.38-3.6,16.37-3.6,11.33,1.2,16.3,3.6c4.97,2.4,9.23,5.79,12.76,10.17,3.54,4.38,6.3,9.67,8.28,15.86,1.98,6.19,2.97,13.08,2.97,20.66s-.99,14.47-2.97,20.66c-1.98,6.19-4.74,11.5-8.28,15.92-3.54,4.42-7.79,7.84-12.76,10.24-4.97,2.4-10.41,3.6-16.3,3.6s-11.44-1.2-16.37-3.6c-4.93-2.4-9.18-5.81-12.76-10.24-3.58-4.42-6.36-9.73-8.34-15.92-1.98-6.19-2.97-13.08-2.97-20.66ZM43.39,100.18c0,4.21.38,8.05,1.14,11.5.76,3.46,1.83,6.45,3.22,8.97,1.39,2.53,3.05,4.49,4.99,5.88,1.94,1.39,4.13,2.09,6.57,2.09s4.53-.7,6.51-2.09c1.98-1.39,3.64-3.35,4.99-5.88,1.35-2.53,2.4-5.52,3.16-8.97.76-3.45,1.14-7.29,1.14-11.5s-.38-7.94-1.14-11.44c-.76-3.5-1.81-6.49-3.16-8.97-1.35-2.48-3.01-4.42-4.99-5.81-1.98-1.39-4.15-2.08-6.51-2.08s-4.63.69-6.57,2.08c-1.94,1.39-3.6,3.33-4.99,5.81-1.39,2.49-2.46,5.48-3.22,8.97-.76,3.5-1.14,7.31-1.14,11.44Z"/>
      <path class="cls-2" d="M140.07,89.82c.67.08,1.24.13,1.71.13h1.2c3.12,0,5.64-.93,7.58-2.78,1.94-1.85,2.91-4.25,2.91-7.2s-.91-5.18-2.72-6.95c-1.81-1.77-4.15-2.65-7.01-2.65-3.03,0-5.48,1.01-7.33,3.03-1.85,2.02-2.78,4.63-2.78,7.83h-22.87c.59-4.97,1.83-9.39,3.73-13.27,1.9-3.87,4.32-7.14,7.27-9.79,2.95-2.65,6.4-4.68,10.36-6.07,3.96-1.39,8.34-2.08,13.14-2.08s8.99.65,12.83,1.96c3.83,1.31,7.12,3.16,9.86,5.56,2.74,2.4,4.84,5.31,6.32,8.72,1.47,3.41,2.21,7.23,2.21,11.44,0,4.55-.86,8.28-2.59,11.18-1.73,2.91-4.19,5.41-7.39,7.52,4.88,1.52,8.7,4.23,11.44,8.15,2.74,3.92,4.11,8.74,4.11,14.47,0,4.72-.93,9.02-2.78,12.89-1.85,3.88-4.44,7.2-7.77,9.98-3.33,2.78-7.29,4.93-11.88,6.45-4.59,1.52-9.63,2.28-15.1,2.28-7.33,0-13.94-1.43-19.84-4.3-5.9-2.86-10.62-7.41-14.15-13.65-1.6-2.78-2.68-5.56-3.22-8.34-.55-2.78-.82-5.6-.82-8.47h24.52c.17,4.47,1.47,7.86,3.92,10.17,2.44,2.32,5.73,3.48,9.86,3.48,4.38,0,7.58-1.18,9.6-3.54,2.02-2.36,3.03-5.26,3.03-8.72,0-4.13-1.22-7.25-3.67-9.35-2.44-2.11-5.35-3.16-8.72-3.16-.84,0-1.64.06-2.4.19-.76.13-1.6.27-2.53.44v-15.54Z"/>
    </g>
  </g>
</svg>