<?xml version="1.0" standalone="no"?>
<!DOCTYPE svg PUBLIC "-//W3C//DTD SVG 20010904//EN"
 "http://www.w3.org/TR/2001/REC-SVG-20010904/DTD/svg10.dtd">
<svg version="1.0" xmlns="http://www.w3.org/2000/svg"
 width="180.000000pt" height="180.000000pt" viewBox="0 0 180.000000 180.000000"
 preserveAspectRatio="xMidYMid meet">
<metadata>
Created by potrace 1.14, written by Peter Selinger 2001-2017
</metadata>
<g transform="translate(0.000000,180.000000) scale(0.100000,-0.100000)"
fill="#000000" stroke="none">
<path d="M888 1753 c-4 -71 -5 -88 -11 -103 -3 -8 -13 -69 -22 -135 -8 -66
-18 -133 -20 -150 -2 -16 -12 -82 -21 -145 -9 -63 -17 -116 -18 -117 -1 -2
-81 55 -177 126 -96 71 -175 128 -177 126 -2 -1 56 -79 127 -173 72 -94 131
-172 131 -174 0 -2 -10 -4 -22 -6 -20 -1 -544 -74 -623 -86 -16 -2 -36 -5 -44
-5 -46 -3 70 -24 244 -46 224 -27 440 -62 437 -70 -1 -6 -59 -84 -128 -173
-69 -90 -124 -165 -122 -167 2 -2 82 55 178 126 96 72 176 126 177 122 3 -10
94 -642 96 -665 2 -31 17 -19 18 15 0 17 2 41 4 52 2 11 13 85 25 165 12 80
23 156 25 170 4 26 20 141 31 220 3 25 7 46 8 47 2 2 81 -55 177 -126 96 -71
176 -128 178 -125 2 2 -12 23 -31 46 -61 75 -228 296 -228 302 0 3 3 5 8 4 6
-2 100 9 142 17 29 5 112 16 330 45 189 25 223 30 219 35 -5 4 -271 44 -409
60 -25 3 -72 10 -105 15 -33 5 -85 12 -115 16 -30 3 -58 9 -62 13 -3 3 52 82
124 174 71 93 128 170 126 172 -2 2 -82 -55 -178 -126 l-175 -130 -6 33 c-4
18 -10 56 -13 83 -3 28 -9 66 -11 85 -15 100 -25 169 -29 199 -29 215 -42 291
-48 291 -5 0 -9 -17 -10 -37z"/>
</g>
</svg>
