<?xml version="1.0" encoding="UTF-8"?>
<svg id="Calque_1" data-name="Calque 1" xmlns="http://www.w3.org/2000/svg" viewBox="0 0 200 200">
  <defs>
    <style>
      .cls-1 {
        isolation: isolate;
      }

      .cls-2 {
        fill: none;
        stroke: #fb8c24;
      }
    </style>
  </defs>
  <g id="_01" data-name=" 01" class="cls-1">
    <g class="cls-1">
      <path class="cls-2" d="M32.39,100.76c0-7.58.99-14.47,2.97-20.66,1.98-6.19,4.76-11.48,8.34-15.86,3.58-4.38,7.84-7.77,12.76-10.17,4.93-2.4,10.38-3.6,16.37-3.6s11.33,1.2,16.3,3.6c4.97,2.4,9.23,5.79,12.76,10.17,3.54,4.38,6.3,9.67,8.28,15.86,1.98,6.19,2.97,13.08,2.97,20.66s-.99,14.47-2.97,20.66c-1.98,6.19-4.74,11.5-8.28,15.92-3.54,4.42-7.79,7.84-12.76,10.24-4.97,2.4-10.41,3.6-16.3,3.6s-11.44-1.2-16.37-3.6c-4.93-2.4-9.18-5.81-12.76-10.24-3.58-4.42-6.36-9.73-8.34-15.92-1.98-6.19-2.97-13.08-2.97-20.66ZM56.91,100.76c0,4.21.38,8.05,1.14,11.5.76,3.46,1.83,6.45,3.22,8.97,1.39,2.53,3.05,4.49,4.99,5.88,1.94,1.39,4.13,2.09,6.57,2.09s4.53-.7,6.51-2.09c1.98-1.39,3.64-3.35,4.99-5.88,1.35-2.53,2.4-5.52,3.16-8.97.76-3.45,1.14-7.29,1.14-11.5s-.38-7.94-1.14-11.44c-.76-3.5-1.81-6.49-3.16-8.97-1.35-2.48-3.01-4.42-4.99-5.81-1.98-1.39-4.15-2.09-6.51-2.09s-4.63.7-6.57,2.09c-1.94,1.39-3.6,3.33-4.99,5.81-1.39,2.49-2.46,5.48-3.22,8.97-.76,3.5-1.14,7.31-1.14,11.44Z"/>
      <path class="cls-2" d="M142.84,74.22h-13.9v-20.98h38.67v95.29h-24.77v-74.31Z"/>
    </g>
  </g>
</svg>